ffmpeg version 4.2.4-1ubuntu0.1 Copyright (c) 2000-2020 the FFmpeg developers
  built with gcc 9 (Ubuntu 9.3.0-10ubuntu2)
  configuration: --prefix=/usr --extra-version=1ubuntu0.1 --toolchain=hardened --libdir=/usr/lib/x86_64-linux-gnu --incdir=/usr/include/x86_64-linux-gnu --arch=amd64 --enable-gpl --disable-stripping --enable-avresample --disable-filter=resample --enable-avisynth --enable-gnutls --enable-ladspa --enable-libaom --enable-libass --enable-libbluray --enable-libbs2b --enable-libcaca --enable-libcdio --enable-libcodec2 --enable-libflite --enable-libfontconfig --enable-libfreetype --enable-libfribidi --enable-libgme --enable-libgsm --enable-libjack --enable-libmp3lame --enable-libmysofa --enable-libopenjpeg --enable-libopenmpt --enable-libopus --enable-libpulse --enable-librsvg --enable-librubberband --enable-libshine --enable-libsnappy --enable-libsoxr --enable-libspeex --enable-libssh --enable-libtheora --enable-libtwolame --enable-libvidstab --enable-libvorbis --enable-libvpx --enable-libwavpack --enable-libwebp --enable-libx265 --enable-libxml2 --enable-libxvid --enable-libzmq --enable-libzvbi --enable-lv2 --enable-omx --enable-openal --enable-opencl --enable-opengl --enable-sdl2 --enable-libdc1394 --enable-libdrm --enable-libiec61883 --enable-nvenc --enable-chromaprint --enable-frei0r --enable-libx264 --enable-shared
  libavutil      56. 31.100 / 56. 31.100
  libavcodec     58. 54.100 / 58. 54.100
  libavformat    58. 29.100 / 58. 29.100
  libavdevice    58.  8.100 / 58.  8.100
  libavfilter     7. 57.100 /  7. 57.100
  libavresample   4.  0.  0 /  4.  0.  0
  libswscale      5.  5.100 /  5.  5.100
  libswresample   3.  5.100 /  3.  5.100
  libpostproc    55.  5.100 / 55.  5.100
Input #0, image2, from './Cubo/Cubo%02d.png':
  Duration: 00:00:04.00, start: 0.000000, bitrate: N/A
    Stream #0:0: Video: png, rgb24(pc), 320x240, 25 fps, 25 tbr, 25 tbn, 25 tbc
Stream mapping:
  Stream #0:0 -> #0:0 (png (native) -> h264 (libx264))
Press [q] to stop, [?] for help
[libx264 @ 0x5585b174fa80] using cpu capabilities: MMX2 SSE2Fast SSSE3 SSE4.2 AVX FMA3 BMI2 AVX2
[libx264 @ 0x5585b174fa80] profile High 4:4:4 Predictive, level 1.2, 4:4:4 8-bit
Output #0, avi, to 'exercici6/cubo_h264_g100_ref0_r13.avi':
  Metadata:
    ISFT            : Lavf58.29.100
    Stream #0:0: Video: h264 (libx264) (H264 / 0x34363248), yuv444p, 320x240, q=-1--1, 13 fps, 13 tbn, 13 tbc
    Metadata:
      encoder         : Lavc58.54.100 libx264
    Side data:
      cpb: bitrate max/min/avg: 0/0/0 buffer size: 0 vbv_delay: -1
frame=   54 fps=0.0 q=-1.0 Lsize=     296kB time=00:00:04.00 bitrate= 605.6kbits/s dup=0 drop=46 speed=24.5x    
video:289kB audio:0kB subtitle:0kB other streams:0kB global headers:0kB muxing overhead: 2.368886%
bench: utime=0.539s stime=0.002s rtime=0.164s
bench: maxrss=91068kB
[libx264 @ 0x5585b174fa80] frame I:2     Avg QP:24.60  size:  6976
[libx264 @ 0x5585b174fa80] frame P:48    Avg QP:26.21  size:  5477
[libx264 @ 0x5585b174fa80] frame B:4     Avg QP:27.15  size:  4731
[libx264 @ 0x5585b174fa80] consecutive B-frames: 88.9%  3.7%  0.0%  7.4%
[libx264 @ 0x5585b174fa80] mb I  I16..4: 20.7%  0.0% 79.3%
[libx264 @ 0x5585b174fa80] mb P  I16..4: 11.6%  0.0% 58.6%  P16..4: 11.2% 11.3%  4.1%  0.0%  0.0%    skip: 3.2%
[libx264 @ 0x5585b174fa80] mb B  I16..4:  3.8%  0.0% 35.8%  B16..8: 23.8% 19.2%  6.2%  direct: 4.0%  skip: 7.1%  L0:45.4% L1:32.9% BI:21.7%
[libx264 @ 0x5585b174fa80] coded y,u,v intra: 75.0% 62.5% 66.3% inter: 39.8% 18.2% 23.6%
[libx264 @ 0x5585b174fa80] i16 v,h,dc,p: 18% 36% 16% 29%
[libx264 @ 0x5585b174fa80] i4 v,h,dc,ddl,ddr,vr,hd,vl,hu: 26% 13% 17%  9%  6%  8%  5% 12%  5%
[libx264 @ 0x5585b174fa80] Weighted P-Frames: Y:12.5% UV:12.5%
[libx264 @ 0x5585b174fa80] kb/s:569.68
